<svg xmlns="http://www.w3.org/2000/svg" width="176" height="176" fill="none"><path fill="#F54E07" d="M0 65.12c0-28.084 0-42.126 7.557-51.712a35.2 35.2 0 0 1 5.85-5.851C22.995 0 37.037 0 65.12 0h45.76c28.084 0 42.126 0 51.712 7.557a35.165 35.165 0 0 1 5.851 5.85C176 22.995 176 37.037 176 65.12v45.76c0 28.084 0 42.126-7.557 51.712a35.13 35.13 0 0 1-5.851 5.851C153.006 176 138.964 176 110.88 176H65.12c-28.084 0-42.126 0-51.712-7.557a35.165 35.165 0 0 1-5.851-5.851C0 153.006 0 138.964 0 110.88V65.12Z"/><path stroke="#fff" stroke-width="18" d="M44 43c-18.5 40-3.5 88 37.5 88 55 0 70.5-88 29.5-88-25 0-29.28 33-15.5 59.5 11.395 21.913 32.764 35.86 54.5 19.5"/></svg>